<svg width="120" height="120" viewBox="0 0 120 120" fill="none" xmlns="http://www.w3.org/2000/svg" role="img" aria-label="OHMS leaf mark">
  <defs>
    <radialGradient id="markBg" cx="38%" cy="32%" r="75%">
      <stop offset="0%" stop-color="#cdeeb0"/>
      <stop offset="55%" stop-color="#8ed05a"/>
      <stop offset="100%" stop-color="#5aa630"/>
    </radialGradient>
    <linearGradient id="markLeaf" x1="0" y1="0" x2="1" y2="1">
      <stop offset="0%" stop-color="#8ed35c"/>
      <stop offset="100%" stop-color="#3f8f2e"/>
    </linearGradient>
  </defs>
  <circle cx="60" cy="60" r="56" fill="url(#markBg)"/>
  <circle cx="60" cy="60" r="56" fill="none" stroke="#4c9a2e" stroke-opacity="0.35" stroke-width="4"/>
  <path d="M40 82 C42 50 64 32 92 32 C80 39 75 51 73 63 C90 48 100 50 100 50 C97 68 80 86 55 84 C50 83 45 83 40 82 Z" fill="url(#markLeaf)"/>
  <path d="M42 84 C47 64 57 49 74 40" stroke="#2f6f22" stroke-width="3" stroke-linecap="round" fill="none" opacity="0.55"/>
  <path d="M42 83 C37 69 42 52 53 43" stroke="#a9743f" stroke-width="4" stroke-linecap="round" fill="none"/>
</svg>
